<svg xmlns="http://www.w3.org/2000/svg" version="1.1" xmlns:xlink="http://www.w3.org/1999/xlink" xmlns:svgjs="http://svgjs.dev/svgjs" width="1423" height="562" preserveAspectRatio="none" viewBox="0 0 1423 562">
    <g mask="url(&quot;#SvgjsMask1218&quot;)" fill="none">
        <path d="M20.31 186.72L89.59 226.72L89.59 306.72L20.31 346.72L-48.97 306.72L-48.97 226.72zM20.31 426.72L89.59 466.72L89.59 546.72L20.31 586.72L-48.97 546.72L-48.97 466.72zM228.16 306.72L297.45 346.72L297.45 426.72L228.16 466.72L158.88 426.72L158.88 346.72zM158.88 426.72L228.16 466.72L228.16 546.72L158.88 586.72L89.59 546.72L89.59 466.72zM228.16 546.72L297.45 586.72L297.45 666.72L228.16 706.72L158.88 666.72L158.88 586.72zM297.45 186.72L366.73 226.72L366.73 306.72L297.45 346.72L228.16 306.72L228.16 226.72zM366.73 306.72L436.01 346.72L436.01 426.72L366.73 466.72L297.45 426.72L297.45 346.72zM436.01 426.72L505.3 466.72L505.3 546.72L436.01 586.72L366.73 546.72L366.73 466.72zM505.3 546.72L574.58 586.72L574.58 666.72L505.3 706.72L436.01 666.72L436.01 586.72zM782.43 66.72L851.72 106.72L851.72 186.72L782.43 226.72L713.15 186.72L713.15 106.72zM990.29 -53.28L1059.57 -13.28L1059.57 66.72L990.29 106.72L921 66.72L921 -13.28zM1128.85 -53.28L1198.14 -13.28L1198.14 66.72L1128.85 106.72L1059.57 66.72L1059.57 -13.28zM1198.14 66.72L1267.42 106.72L1267.42 186.72L1198.14 226.72L1128.85 186.72L1128.85 106.72zM1128.85 426.72L1198.14 466.72L1198.14 546.72L1128.85 586.72L1059.57 546.72L1059.57 466.72zM1198.14 546.72L1267.42 586.72L1267.42 666.72L1198.14 706.72L1128.85 666.72L1128.85 586.72zM1336.71 66.72L1405.99 106.72L1405.99 186.72L1336.71 226.72L1267.42 186.72L1267.42 106.72zM1336.71 306.72L1405.99 346.72L1405.99 426.72L1336.71 466.72L1267.42 426.72L1267.42 346.72zM1267.42 426.72L1336.71 466.72L1336.71 546.72L1267.42 586.72L1198.14 546.72L1198.14 466.72zM1475.27 306.72L1544.56 346.72L1544.56 426.72L1475.27 466.72L1405.99 426.72L1405.99 346.72z" stroke="rgba(173, 187, 218, 1)" stroke-width="2"></path>
        <path d="M15.56 444.79L58.86 469.79L58.86 519.79L15.56 544.79L-27.74 519.79L-27.74 469.79zM145.47 369.79L188.77 394.79L188.77 444.79L145.47 469.79L102.17 444.79L102.17 394.79zM232.07 219.79L275.38 244.79L275.38 294.79L232.07 319.79L188.77 294.79L188.77 244.79zM318.68 69.79L361.98 94.79L361.98 144.79L318.68 169.79L275.38 144.79L275.38 94.79zM275.38 144.79L318.68 169.79L318.68 219.79L275.38 244.79L232.07 219.79L232.07 169.79zM318.68 369.79L361.98 394.79L361.98 444.79L318.68 469.79L275.38 444.79L275.38 394.79zM318.68 519.79L361.98 544.79L361.98 594.79L318.68 619.79L275.38 594.79L275.38 544.79zM361.98 294.79L405.28 319.79L405.28 369.79L361.98 394.79L318.68 369.79L318.68 319.79zM491.89 69.79L535.19 94.79L535.19 144.79L491.89 169.79L448.59 144.79L448.59 94.79zM535.19 -5.21L578.49 19.79L578.49 69.79L535.19 94.79L491.89 69.79L491.89 19.79zM578.49 69.79L621.79 94.79L621.79 144.79L578.49 169.79L535.19 144.79L535.19 94.79zM535.19 294.79L578.49 319.79L578.49 369.79L535.19 394.79L491.89 369.79L491.89 319.79zM751.7 219.79L795 244.79L795 294.79L751.7 319.79L708.4 294.79L708.4 244.79zM708.4 294.79L751.7 319.79L751.7 369.79L708.4 394.79L665.1 369.79L665.1 319.79zM751.7 519.79L795 544.79L795 594.79L751.7 619.79L708.4 594.79L708.4 544.79zM838.31 369.79L881.61 394.79L881.61 444.79L838.31 469.79L795 444.79L795 394.79zM968.22 144.79L1011.52 169.79L1011.52 219.79L968.22 244.79L924.91 219.79L924.91 169.79zM1098.12 369.79L1141.42 394.79L1141.42 444.79L1098.12 469.79L1054.82 444.79L1054.82 394.79zM1141.42 144.79L1184.73 169.79L1184.73 219.79L1141.42 244.79L1098.12 219.79L1098.12 169.79zM1184.73 219.79L1228.03 244.79L1228.03 294.79L1184.73 319.79L1141.42 294.79L1141.42 244.79zM1141.42 444.79L1184.73 469.79L1184.73 519.79L1141.42 544.79L1098.12 519.79L1098.12 469.79zM1184.73 519.79L1228.03 544.79L1228.03 594.79L1184.73 619.79L1141.42 594.79L1141.42 544.79zM1228.03 144.79L1271.33 169.79L1271.33 219.79L1228.03 244.79L1184.73 219.79L1184.73 169.79zM1228.03 294.79L1271.33 319.79L1271.33 369.79L1228.03 394.79L1184.73 369.79L1184.73 319.79zM1314.63 -5.21L1357.94 19.79L1357.94 69.79L1314.63 94.79L1271.33 69.79L1271.33 19.79zM1314.63 144.79L1357.94 169.79L1357.94 219.79L1314.63 244.79L1271.33 219.79L1271.33 169.79zM1401.24 144.79L1444.54 169.79L1444.54 219.79L1401.24 244.79L1357.94 219.79L1357.94 169.79zM1444.54 219.79L1487.85 244.79L1487.85 294.79L1444.54 319.79L1401.24 294.79L1401.24 244.79zM1401.24 294.79L1444.54 319.79L1444.54 369.79L1401.24 394.79L1357.94 369.79L1357.94 319.79zM1401.24 444.79L1444.54 469.79L1444.54 519.79L1401.24 544.79L1357.94 519.79L1357.94 469.79z" stroke="rgba(0, 0, 0, 0)" stroke-width="2"></path>
    </g>
    <defs>
        <mask id="SvgjsMask1218">
            <rect width="1423" height="562" fill="#ffffff"></rect>
        </mask>
    </defs>
</svg>